<?xml version="1.0" encoding="UTF-8" standalone="no"?>
<!-- Created with Inkscape (http://www.inkscape.org/) -->

<svg
   xmlns:dc="http://purl.org/dc/elements/1.1/"
   xmlns:cc="http://creativecommons.org/ns#"
   xmlns:rdf="http://www.w3.org/1999/02/22-rdf-syntax-ns#"
   xmlns:svg="http://www.w3.org/2000/svg"
   xmlns="http://www.w3.org/2000/svg"
   xmlns:sodipodi="http://sodipodi.sourceforge.net/DTD/sodipodi-0.dtd"
   xmlns:inkscape="http://www.inkscape.org/namespaces/inkscape"
   width="135.467mm"
   height="135.467mm"
   viewBox="0 0 135.467 135.467"
   version="1.1"
   id="svg8"
   inkscape:version="0.92.2 5c3e80d, 2017-08-06"
   sodipodi:docname="logo_interferencias_byn.svg">
  <defs
     id="defs2" />
  <sodipodi:namedview
     id="base"
     pagecolor="#ffffff"
     bordercolor="#666666"
     borderopacity="1.0"
     inkscape:pageopacity="0.0"
     inkscape:pageshadow="2"
     inkscape:zoom="1.342404"
     inkscape:cx="214.35509"
     inkscape:cy="231.24357"
     inkscape:document-units="mm"
     inkscape:current-layer="layer2"
     showgrid="false"
     inkscape:lockguides="false"
     showguides="true"
     inkscape:guide-bbox="true"
     inkscape:snap-bbox="true"
     inkscape:bbox-paths="true"
     inkscape:snap-text-baseline="true"
     inkscape:snap-bbox-edge-midpoints="false"
     inkscape:snap-page="true"
     inkscape:window-width="1920"
     inkscape:window-height="1015"
     inkscape:window-x="0"
     inkscape:window-y="0"
     inkscape:window-maximized="1">
    <inkscape:grid
       type="xygrid"
       id="grid4588" />
  </sodipodi:namedview>
  <metadata
     id="metadata5">
    <rdf:RDF>
      <cc:Work
         rdf:about="">
        <dc:format>image/svg+xml</dc:format>
        <dc:type
           rdf:resource="http://purl.org/dc/dcmitype/StillImage" />
        <dc:title />
      </cc:Work>
    </rdf:RDF>
  </metadata>
  <g
     inkscape:groupmode="layer"
     id="layer2"
     inkscape:label="vectorial"
     style="display:inline">
    <rect
       style="opacity:1;fill:#252525;fill-opacity:1;fill-rule:nonzero;stroke:none;stroke-width:1.00800002;stroke-linecap:round;stroke-linejoin:round;stroke-miterlimit:4;stroke-dasharray:none;stroke-opacity:1"
       id="rect4746"
       width="135.46666"
       height="135.46666"
       x="0"
       y="-5.5948894e-06" />
    <path
       id="path4614"
       style="display:inline;fill:#f4faf4;fill-opacity:1;fill-rule:evenodd;stroke:none;stroke-width:0.26458332px;stroke-linecap:butt;stroke-linejoin:miter;stroke-opacity:1"
       d="m 50.51394,135.46699 0.775753,-29.93419 -7.896471,-6.17393 1.754646,-16.59609 15.347917,2.80633 -1.562854,6.35632 -5.783699,-0.15965 -0.0548,2.13548 8.391591,1.60629 0.841899,-11.84802 c 0,0 15.192767,-1.2654 17.992612,0.53386 1.807069,1.16127 2.092023,2.25642 2.092023,2.25642 l -0.280633,11.22532 -10.036643,9.48672 2.553094,28.30519 z M 39.952419,75.67637 c 1.810182,1.67981 1.845433,7.8118 0.264583,9.59115 -6.339731,0.13214 -9.531653,0.007 -14.618229,0.99219 -3.573784,0.69196 -7.858651,3.01705 -8.202083,7.20989 -0.581805,7.10305 7.424778,11.66209 6.283854,19.38073 -0.59389,4.01782 -3.676961,6.37593 -6.746875,8.06979 -5.008532,2.76352 -16.93333330664,1.78594 -16.93333330664,1.78594 v -9.98802 c 0,0 11.11272430664,2.16355 13.59065830664,-1.12448 5.072072,-6.73026 -13.37232225,-13.03791 -1.8167,-29.63333 6.164448,-8.85297 21.804013,-6.60984 28.178125,-6.28386 z m 74.810941,13.5599 -0.26458,3.70416 7.47448,-0.0661 0.19843,-3.37344 z M 114.43263,78.4545 v 3.77031 l 7.87135,0.0661 -4e-5,-3.57187 z m 0.59531,-10.64948 -0.13224,3.04271 8.46667,0.52916 0.0662,-3.37343 z m -26.722918,7.27604 c 0,0 0.994945,2.33865 -0.992187,7.60677 0.812825,1.94466 0.198438,5.22552 0.198438,5.22552 l 10.120311,0.13229 c 0,0 4.278666,4.50588 7.077606,5.42396 4.65485,1.52684 7.54063,0.66146 7.54063,0.66146 l 1.12448,-28.575 c 0,0 -5.50517,-1.98373 -11.31094,1.25677 -4.553011,2.54127 -5.225525,7.9375 -5.225525,7.9375 z m -8.40052,-7.14375 c 1.233112,-1.13381 5.01577,-1.26968 6.614583,2.38125 1.338619,3.05677 -0.372881,12.57203 -0.926042,12.89844 -1.698441,1.00221 -5.445952,0.19168 -5.820833,-1.05834 -0.91448,-3.04929 -0.470226,-8.50375 0.132292,-14.22135 z M 69.784189,65.15919 c 2.165716,-0.71583 4.823875,-1.47667 8.069792,0.7276 0.721975,4.69394 1.271941,8.90152 -0.443647,15.70064 -2.135228,0.28134 -4.049829,0.43364 -7.361561,-0.35485 -1.077269,-3.13262 -1.477432,-7.09401 -0.264584,-16.07339 z M 56.488877,63.63783 c 1.433502,-1.57957 7.357579,-1.67611 9.855729,0.46302 2.699259,2.31134 1.069754,12.13874 0.661458,17.06563 -2.375271,1.55254 -5.875787,1.18906 -8.929687,0.13229 -0.790547,-5.8265 -1.093153,-10.77392 -1.5875,-17.66094 z m -11.509375,0.66146 c 0.10827,4.94313 0.05478,8.92371 0.396875,16.00729 2.181734,1.72439 7.121858,2.31602 9.268442,1.75853 0.620032,-6.73483 1.360522,-13.29174 -0.140317,-17.76582 -3.539608,-1.44238 -6.559578,-0.86955 -9.525,0 z m 36.380208,-27.51667 -2.116667,24.47396 6.35,-8.99583 4.365625,8.33437 8.466667,-44.31771 -12.170833,28.44271 z M 58.076377,19.84929 67.998252,49.61491 69.982627,35.72429 75.00971,40.22221 65.087835,4.37116 66.807627,27.25762 Z M 49.485287,54.62696 39.288955,40.50177 48.456302,39.0986 39.195411,18.79948 61.084785,43.21455 49.017568,45.08544 Z"
       inkscape:connector-curvature="0"
       sodipodi:nodetypes="ccccccccccscccccccssssccssccccccccccccccccccccsccscccssscccccccsccccccccccccccccccccccccccccc" />
  </g>
</svg>
